<svg xmlns="http://www.w3.org/2000/svg" xmlns:xlink="http://www.w3.org/1999/xlink" viewBox="0 0 596.32 700.51"><defs><style>.cls-1{fill:url(#linear-gradient);}</style><linearGradient id="linear-gradient" x1="298.16" y1="705.34" x2="298.16" y2="0.74" gradientUnits="userSpaceOnUse"><stop offset="0" stop-color="#fb3c75"/><stop offset="1" stop-color="#fb665f"/></linearGradient></defs><g id="Layer_2" data-name="Layer 2"><g id="Layer_1-2" data-name="Layer 1"><path class="cls-1" d="M594.75,363.06c-1.19-9.34-3.14-18.59-3.35-28.05-2-3.4-1.9-7.32-2.67-11-2.8-13.47-6.12-26.8-10.14-40a27.63,27.63,0,0,1-.63-3.87l-9.9-28c-3.95-8.53-7.78-17.11-11.88-25.56-4.61-9.49-9.45-18.87-14.19-28.3h0l-.85-1.07c-3.9-6.13-8-12.14-11.21-18.69a20.26,20.26,0,0,1-5.39-8.06l-19.51-26.07-3.81-5.14-20.58-23.82a38.68,38.68,0,0,1-6.69-7l-20.18-19.9a14.58,14.58,0,0,1-5.6-5.14L421.11,60.64,393.11,40l-10.95-7.35a135.32,135.32,0,0,1-15.87-9.9C353.54,15.8,340.82,8.81,328,2c-6.27-3.33-7.56-2.76-10.57,3.55,1.36,8.94,3.32,17.8,3.11,26.92a142.69,142.69,0,0,1,1.76,28,168.86,168.86,0,0,1-.5,26.89c-.22,9.44-.9,18.83-3.18,28a189.2,189.2,0,0,1-15.31,54.87c-5.82,14.34-12.64,28.11-22.79,40a2.7,2.7,0,0,1-2,2.25,1.63,1.63,0,0,1-1.08,1.74,5.71,5.71,0,0,1-3,3.8l-1,1.17c-.21,1.11-.57,2.1-1.85,2.36l-1.75,1.73a40.31,40.31,0,0,1-12.19,12.1l-1.55,1.84-1.47,1.36a.71.71,0,0,1-.62.66,3.19,3.19,0,0,1-2.4,2.06l-1.18.84a9.84,9.84,0,0,1-4.86,4c-13.09,11.47-28.14,19.69-44,26.65-6.67,3-13.22,6.3-20.08,9-4.45,1.73-6.7.89-7.86-3.55a79.53,79.53,0,0,1-12.6-25.8c-.19-.57-.38-1.15-.58-1.73a4.44,4.44,0,0,1-1.51-3.53,116.86,116.86,0,0,1-5.82-20.79A147.06,147.06,0,0,1,148,198.23a45.14,45.14,0,0,1-1.38-12.73,4.11,4.11,0,0,1-.42-.69c0-.08.13-.23.2-.35a15,15,0,0,1-.64-6.17,2.69,2.69,0,0,1-.25-3c-.28-.64-.55-1.29-.82-1.93-3.19-2.09-6.18-1.5-9.22.5-5.5,3.61-11.09,7.09-16.64,10.63l-16.68,13c-3.66,3.42-7.09,7.11-11.27,9.93L73.1,225.35l-9.24,11.86L51,253.23q-6.93,11-13.85,22a13.5,13.5,0,0,1-2.75,5.11L21.33,308.22q-4.74,13.41-9.47,26.83l-1.53,5.16Q8.13,349.62,5.91,359c-.22.54-.44,1.08-.65,1.63A2.64,2.64,0,0,1,5,363.05L1.23,389.93,0,417.94l1.77,27q1.73,12.27,3.44,24.54c3.27,14,6.69,28,11.58,41.53,1.9,5.29,3.94,10.53,5.91,15.79q6.84,13.92,13.67,27.84l1.66,3q7.69,11.94,15.41,23.88l10.5,13.8q6.16,7.13,12.35,14.24l15.63,15.48,14.3,12.47,11.63,8.64,28.09,18.17,28,13.66a383.12,383.12,0,0,0,54.7,16.92l28.09,4.26,26.8,1.33c9-.22,17.92-1.22,26.92-.71l28-2.17,15-2.19,1.78-.41.34-.09.22.28,1.65-.68,6.9-1.24c15.31-4.17,30.74-7.94,45.53-13.82l12.44-4.92c.9-1.06,2.16-1.14,3.4-1.28a12.1,12.1,0,0,1,6.62-3.41c14.89-7.75,29.46-16,42.91-26.16,2.83-3.32,7-4.75,10.38-7.22l17.49-15.15a2.78,2.78,0,0,1,1.94-1.71l1.1-1.1a.84.84,0,0,1,.93-.89l1.08-.91,1.09-1.08.87-.9c.37-.38.74-.76,1.12-1.13l.92-.93,1-1,1-1,.84-1L530,592.41l.65-.81c1.34-1.81,2.42-3.84,4.34-5.16.72-1.42,1.35-2.9,2.78-3.8a341.24,341.24,0,0,0,32.59-55.79c6.41-15.91,12.52-31.91,16.83-48.55.82-3.17.77-6.59,2.52-9.51q2.14-11.94,4.28-23.89,1.15-13.5,2.32-27,0-13.94,0-27.87Q595.54,376.54,594.75,363.06ZM326.58,351.77a36.71,36.71,0,0,1,4.65-5.32c14.45-14.2,33.23-12,44,5.16,6.58,10.45,10,24.29,10.31,44.27.09,10.41-2.56,23.28-11,34.41-11.27,14.82-29.71,19.18-44.6,10.35-10.92-6.48-16.66-16.69-18.32-28.9C308.65,389.88,314,369.86,326.58,351.77ZM217.29,359a40.67,40.67,0,0,1,9.53-14.34c9.08-8.73,21.56-10,32.16-3.16,7.27,4.65,12.37,11.23,16.31,18.74a93.75,93.75,0,0,1,10.5,39.85c-.11,9.76-1.56,18.63-6.09,26.82C268,448,241.62,451.38,225,433.92a49.51,49.51,0,0,1-13-27A88.73,88.73,0,0,1,217.29,359ZM164.51,510.91c-9.17-8.9-13.51-20.28-15.74-32.59-2.15-11.87-2.7-23.7,1.21-35.34,4.33-12.85,14-19.74,26-18.47a30.59,30.59,0,0,1,16.88,7.58c16.71,14.4,25.61,32.84,27.52,51.35.44,20.16-8.59,33.86-22.95,37.59C184.49,524.38,173.69,519.82,164.51,510.91Zm199.31,108.6a48.61,48.61,0,0,1-12,1.67A70.63,70.63,0,0,1,332,618.3c-7.35-2.16-14.75-4.18-22.12-6.3a44,44,0,0,0-23.42,0c-10.4,2.63-20.44,6.66-31.08,8.34-17.8,2.81-33.67-.75-44.75-16-11.42-15.75-12.57-33-4.64-50.63a56.92,56.92,0,0,1,19.37-23.07c15.06-10.76,25.16-25.35,32.53-42,3.88-8.74,8.56-16.84,16-23,15.7-13.06,36-12.3,50.73,1.85a54.15,54.15,0,0,1,12.81,18.92,103.68,103.68,0,0,0,34.35,45c12,9.06,20.34,21,22.95,36.2C398.76,590.7,385.27,613.34,363.82,619.51Zm73.75-115.28a42.6,42.6,0,0,1-14.7,13.54c-20.13,11.05-42.78-.21-46.27-22.93a52.72,52.72,0,0,1,2.21-24.44c4.41-13.69,11.26-25.94,21.86-35.86a38.07,38.07,0,0,1,14.7-8.92c11.7-3.64,22.68.83,28.54,11.6,3.65,6.72,5.32,14.58,5.31,27.4C448.72,477.16,446.22,491.56,437.57,504.23Z"/></g></g></svg>